<?xml version="1.0" encoding="utf-8"?>
<!-- Generator: Adobe Illustrator 23.0.4, SVG Export Plug-In . SVG Version: 6.00 Build 0)  -->
<svg version="1.1" id="Layer_1" xmlns="http://www.w3.org/2000/svg" xmlns:xlink="http://www.w3.org/1999/xlink" x="0px" y="0px"
	 viewBox="0 0 500 500" style="enable-background:new 0 0 500 500;" xml:space="preserve">
<style type="text/css">
	.st0{fill:#FFFFFF;}
</style>
<g>
	<path class="st0" d="M461.2,142.9l4.9-17.2l-17.3-4.4l3.1-17.6l-17.7-2.5l1.2-17.8l-17.8-0.7l-0.7-17.8L399,66.1l-2.5-17.7
		l-17.6,3.1l-4.4-17.3l-17.2,4.9l-6.1-16.8L334.7,29l-7.9-16L311,21.3l-9.5-15.1l-14.8,10l-11-14.1L262,13.5L249.6,0.7l-12.4,12.8
		L223.4,2.1l-11,14.1l-14.8-10l-9.5,15.1l-15.8-8.4l-7.9,16l-16.6-6.7l-6.1,16.8l-17.2-4.9l-4.4,17.3l-17.6-3.1l-2.5,17.7l-17.8-1.2
		l-0.7,17.8l-17.8,0.7l1.2,17.8l-17.7,2.5l3.1,17.6L33,125.7l4.9,17.2L21.2,149l6.7,16.6l-16,7.9l8.4,15.8L5,198.7l10,14.8l-14.1,11
		l11.5,13.7l-12.8,12.4l12.8,12.4L0.9,276.8l14.1,11L5,302.7l15.1,9.5L11.8,328l16,7.9l-6.7,16.6l16.8,6.1L33,375.7l17.3,4.4
		l-3.1,17.6l17.7,2.5L63.8,418l17.8,0.7l0.7,17.8l17.8-1.2l2.5,17.7l17.6-3.1l4.4,17.3l17.2-4.9l6.1,16.8l16.6-6.7l7.9,16l15.8-8.4
		l9.5,15.1l14.8-10l11,14.1l13.7-11.5l12.4,12.8l12.4-12.8l13.7,11.5l11-14.1l14.8,10l9.5-15.1l15.8,8.4l7.9-16l16.6,6.7l6.1-16.8
		l17.2,4.9l4.4-17.3l17.6,3.1l2.5-17.7l17.8,1.2l0.7-17.8l17.8-0.7l-1.2-17.8l17.7-2.5l-3.1-17.6l17.3-4.4l-4.9-17.2l16.8-6.1
		l-6.7-16.6l16-7.9l-8.4-15.8l15.1-9.5l-10-14.8l14.1-11l-11.5-13.7l12.8-12.4l-12.8-12.4l11.5-13.7l-14.1-11l10-14.8l-15.1-9.5
		l8.4-15.8l-16-7.9l6.7-16.6L461.2,142.9z M363.9,446.5c-108.4,62.6-247.1,25.4-309.7-83s-25.4-247.1,83-309.7s247.1-25.4,309.7,83
		S472.3,383.9,363.9,446.5z"/>
	<path class="st0" d="M175.2,119.6c-72.1,41.6-96.8,133.8-55.2,205.9s133.8,96.8,205.9,55.2c72.1-41.6,96.8-133.8,55.2-205.9
		S247.2,78,175.2,119.6z M324.4,378.2c-70.6,40.8-161.2,16.5-201.9-54.1c-40.8-70.6-16.5-161.2,54.1-201.9
		c70.6-40.8,161.2-16.5,201.9,54.1C419.3,246.8,395,337.4,324.4,378.2z"/>
	<path class="st0" d="M170.9,112.2c-76.1,43.9-102.3,141.6-58.3,217.7c43.9,76.1,141.6,102.3,217.7,58.3s102.3-141.6,58.3-217.7
		C344.6,94.4,246.9,68.2,170.9,112.2z M327.3,383.2C254,425.5,159.9,400.3,117.5,327c-42.3-73.3-17.1-167.5,56.2-209.8
		s167.5-17.1,209.8,56.2C425.9,246.7,400.7,340.8,327.3,383.2z"/>
	<ellipse transform="matrix(0.2588 -0.9659 0.9659 0.2588 33.8658 210.5581)" class="st0" cx="154.1" cy="83.2" rx="8.8" ry="8.8"/>
	
		<ellipse transform="matrix(0.2588 -0.9659 0.9659 0.2588 -289.1238 458.5504)" class="st0" cx="154.2" cy="417.7" rx="8.8" ry="8.8"/>
	<ellipse transform="matrix(0.866 -0.5 0.5 0.866 -65.9131 255.3344)" class="st0" cx="443.5" cy="250.7" rx="8.8" ry="8.8"/>
	<path class="st0" d="M123.9,370.9c-2.1-2.2-4.8-3.6-7.9-3.3l1.8-2.1l-3.7-3.9l-10.9,10.4l7.7,8.1l4.3-4l-2.6-2.7
		c1.8-1.1,3.9-0.3,5.2,1.1c3.5,3.7,1,7.6-0.9,9.3c-1.4,1.3-5.7,5.6-9.6,1.4c-1.4-1.4-1.5-3.6-0.3-5.2l-5.6-5.9
		c-3.9,5.3-3.6,11.1,1.2,16.2c4.2,4.5,12.3,6.9,19.9-0.2C128.3,384.7,129.5,376.7,123.9,370.9z"/>
	<polygon class="st0" points="99.6,340.5 93.8,344.5 100.6,354.5 83.9,366 88.6,372.9 111.2,357.5 	"/>
	<path class="st0" d="M92.5,325.2c-3.6-7.6-8.6-9.7-15.5-6.4L61.8,326l3.6,7.6l13.5-6.4c2.5-1.2,5.7-2.7,7.4,0.9
		c1.8,3.7-1.4,5.2-3.9,6.4l-13.5,6.4l3.6,7.6l15.2-7.2C94.6,338,96.1,332.8,92.5,325.2z"/>
	<polygon class="st0" points="63.5,308.9 83,303.2 80.7,295.1 61.1,300.8 59,293.4 52.3,295.3 58.9,318.2 65.6,316.2 	"/>
	<polygon class="st0" points="74.9,260.9 67.9,261.8 69.8,276.3 66.4,276.8 64.7,263.9 58.3,264.8 59.9,277.6 56.5,278 54.7,263.9 
		47.8,264.8 50.7,287.3 77.8,283.8 	"/>
	<polygon class="st0" points="74.9,248 59.9,247.5 59.9,247.4 75.2,239.6 75.5,231.4 48.1,230.4 47.8,238.4 62.5,238.9 62.5,239 
		47.6,246.4 47.3,255.1 74.6,256 	"/>
	<polygon class="st0" points="81,204 70.9,201.2 73.9,190.7 67.6,188.9 64.7,199.4 61.4,198.5 64.8,186.3 58.1,184.4 52.4,204.8 
		78.7,212.1 	"/>
	<path class="st0" d="M89.2,180.3l-8.7-4l1.9-4.1c1.4-3,4-2.1,6.4-1.2c1.3,0.5,2.7,0.9,4.1,1.1l3.5-7.7c-1.4,0.2-4.5-1.2-5.7-1.6
		c-3.2-1.1-6.1-0.9-7.9,0.8c0.2-3-2-5.4-4.5-6.6c-4.7-2.1-8.8,0.6-10.8,4.9l-6.7,14.6L85.7,188L89.2,180.3z M70.2,171.7l1.6-3.6
		c1.3-2.9,2.6-3.4,4.2-2.7c2.2,1,1.6,3.1,0.9,4.5l-1.8,4L70.2,171.7z"/>
	<polygon class="st0" points="111.2,142.4 105.3,138.5 97.2,150.7 94.4,148.8 101.6,138 96.1,134.4 88.9,145.1 86.1,143.2 94,131.4 
		88.2,127.5 75.6,146.3 98.3,161.6 	"/>
	<polygon class="st0" points="129.9,121.7 124.8,116.9 114.8,127.7 112.3,125.4 121.1,115.9 116.3,111.5 107.5,120.9 105,118.6 
		114.7,108.2 109.6,103.4 94.1,120 114.2,138.6 	"/>
	<path class="st0" d="M229.8,76c3-0.4,5.7-1.7,7.3-4.3l0.6,2.7l5.3-0.6l-1.8-15l-11.1,1.3l0.7,5.8l3.7-0.4c-0.2,2.1-2,3.3-4,3.5
		c-5.1,0.6-6.7-3.7-7-6.3c-0.2-1.9-1.1-7.9,4.6-8.6c2-0.2,3.8,1,4.4,2.9l8-1c-2-6.3-6.8-9.5-13.7-8.7c-6.1,0.7-12.9,5.7-11.7,16.1
		C216.1,71.3,221.8,76.9,229.8,76z"/>
	<path class="st0" d="M256.5,74.1l0.5-9.5l4.5,0.2c3.3,0.2,3.5,2.9,3.5,5.5c0,1.4,0.1,2.8,0.5,4.2l8.4,0.4c-0.7-1.2-0.6-4.6-0.6-5.9
		c-0.1-3.4-1.4-6-3.7-7c2.8-0.9,4.3-3.8,4.5-6.6c0.3-5.2-3.8-8-8.5-8.3l-16-0.8l-1.4,27.3L256.5,74.1z M257.6,53.3l3.9,0.2
		c3.2,0.2,4.1,1.2,4,2.9c-0.1,2.5-2.3,2.6-3.9,2.5l-4.4-0.2L257.6,53.3z"/>
	<path class="st0" d="M283.1,76.9l2-3.6l8.5,1.9l0.3,4.1l8.5,1.9l-3.8-28.9l-8-1.8l-15.8,24.6L283.1,76.9z M292.6,60.4L292.6,60.4
		l0.7,8.8l-5.1-1.1L292.6,60.4z"/>
	
		<rect x="300.1" y="66.9" transform="matrix(0.3329 -0.943 0.943 0.3329 142.2618 343.3272)" class="st0" width="27.4" height="8.4"/>
	<polygon class="st0" points="325.5,90.7 332.2,77.3 332.3,77.3 333.1,94.5 340.4,98.1 352.7,73.7 345.6,70.1 339,83.2 338.9,83.1 
		338.4,66.5 330.7,62.6 318.4,87.1 	"/>
	<polygon class="st0" points="363.1,114.6 369.9,106.6 378.2,113.6 382.4,108.6 374.1,101.6 376.2,99 386,107.2 390.5,101.8 
		374.3,88.2 356.7,109.1 	"/>
	<path class="st0" d="M381.2,131.8l7.2-6.3l2.9,3.4c2.2,2.5,0.3,4.5-1.5,6.4c-1,1-2,2.1-2.7,3.3l5.5,6.4c0.4-1.4,2.9-3.6,3.8-4.5
		c2.4-2.5,3.3-5.2,2.5-7.5c2.6,1.4,5.7,0.5,7.9-1.4c3.9-3.4,3.2-8.3,0-11.9l-10.5-12.1l-20.6,18L381.2,131.8z M397,118.1l2.6,3
		c2.1,2.4,2,3.8,0.7,4.9c-1.9,1.6-3.5,0.2-4.5-1l-2.9-3.3L397,118.1z"/>
	<polygon class="st0" points="406.7,167.5 412.7,163.9 405,151.4 407.9,149.6 414.7,160.6 420.2,157.2 413.4,146.2 416.3,144.4 
		423.8,156.5 429.8,152.8 417.9,133.5 394.6,147.9 	"/>
	<polygon class="st0" points="417.7,193.2 424.2,190.5 418.6,177 421.7,175.6 426.7,187.6 432.7,185.1 427.7,173.1 430.9,171.8 
		436.4,185 442.8,182.3 434.1,161.4 408.9,171.9 	"/>
	<polygon class="st0" points="260.3,427.1 260.7,441.8 260.7,441.8 252.3,427.3 243.6,427.6 244.4,455 252.4,454.7 252,439.8 
		252,439.8 260.9,454.5 269.1,454.3 268.3,426.9 	"/>
	<path class="st0" d="M286.6,423c-8.1,1.7-12.4,8.7-10.7,16.8c1.7,8.2,8.3,12.9,16.5,11.2c8.1-1.7,12.4-8.7,10.7-16.8
		C301.4,426.1,294.8,421.3,286.6,423z M294.8,436c1.2,6-1.7,8-3.8,8.5c-2.1,0.4-5.6-0.3-6.9-6.3c-1.2-6,1.7-8,3.8-8.5
		C290.1,429.3,293.6,430,294.8,436z"/>
	<polygon class="st0" points="325.9,426.7 325.9,426.7 313,416.1 305,419.3 315.2,444.7 322.6,441.7 317,427.9 317.1,427.8 
		330.4,438.6 338.1,435.6 327.9,410.1 320.5,413.1 	"/>
	<path class="st0" d="M362.4,403.3l3.4,4.8l3-2.2c0.8,1.9-0.2,3.9-1.8,5c-4.2,3-7.6-0.1-9.1-2.2c-1.1-1.5-4.8-6.4-0.1-9.7
		c1.6-1.2,3.8-1,5.2,0.5l6.6-4.7c-4.8-4.6-10.5-5.1-16.2-1c-5,3.6-8.6,11.2-2.5,19.7c4.5,6.3,12.2,8.6,18.8,3.9
		c2.5-1.8,4.2-4.2,4.3-7.3l1.8,2.1l4.3-3.1l-8.7-12.3L362.4,403.3z"/>
	<polygon class="st0" points="382.6,368.7 391.7,382.6 391.6,382.7 377.2,374.5 369,383.2 388.9,402 394.4,396.2 381.6,384.1 
		381.6,384.1 397.7,392.7 402,388.1 392.5,372.6 392.5,372.5 405.3,384.6 410.8,378.8 390.9,360 	"/>
	<path class="st0" d="M400.7,343.6c-4.4,7.1-2.3,14.9,4.8,19.4c7.1,4.4,15.1,2.9,19.5-4.2s2.3-14.9-4.8-19.4
		C413.1,335,405.1,336.5,400.7,343.6z M419.2,355.2c-1.1,1.8-4.1,3.9-9.3,0.6c-5.2-3.2-4.6-6.8-3.5-8.6c1.1-1.8,4.1-3.9,9.3-0.6
		C420.9,349.8,420.3,353.3,419.2,355.2z"/>
	<path class="st0" d="M148.5,254.9l-11.9,6.9c1.8,5,2.6,13.5-10.2,20.9l-2.1,1.2l6.2,10.7l13.8-8l28.7,49.7l17-9.8L148.5,254.9z"/>
	<path class="st0" d="M225.2,259.4c-13.3-23.1-23.2-35.3-44.7-22.9c-21.3,12.3-14.4,29.6-2.5,50.2c13.3,23.1,23.2,35.3,44.7,22.9
		C244,297.3,237.1,279.9,225.2,259.4z M195.1,276.9c-11.9-20.6-14.2-26.4-8.4-29.7c5.8-3.3,9.7,1.6,21.5,22.1
		c11.7,20.3,14,26.2,8.3,29.5C210.8,302.1,206.8,297.1,195.1,276.9z"/>
	<path class="st0" d="M275.4,279.1c21.3-12.3,14.4-29.6,2.5-50.2c-13.3-23.1-23.2-35.3-44.7-22.9c-21.3,12.3-14.4,29.6-2.5,50.2
		C244,279.3,253.9,291.5,275.4,279.1z M239.4,216.8c5.8-3.3,9.7,1.6,21.5,22.1c11.7,20.3,14,26.2,8.3,29.5
		c-5.8,3.3-9.7-1.7-21.4-21.9C235.9,225.9,233.6,220.1,239.4,216.8z"/>
	<path class="st0" d="M340.1,189.9c-13.1,7.5-11.4,17.1-4.8,28.7c6.3,10.8,12.7,18.6,27.3,10.1c14.4-8.3,10.9-17.8,4.7-28.6
		C361.1,189.3,354.6,181.6,340.1,189.9z M357.7,220.4c-3.1,1.8-5.9-0.9-10.4-8.7c-3.8-5.9-6-11.3-2.3-13.4c2.9-1.7,4.8-1,10.1,8.2
		C360.2,215.3,361.3,218.3,357.7,220.4z"/>
	<polygon class="st0" points="330.5,247.3 320,155.9 309.8,161.8 320.2,253.2 	"/>
	<path class="st0" d="M300,219.3c14.4-8.3,10.9-17.8,4.7-28.6c-6.3-10.8-12.7-18.6-27.2-10.2c-13.1,7.5-11.4,17.1-4.8,28.7
		C278.9,220,285.4,227.7,300,219.3z M282.3,188.9c2.9-1.7,4.8-1,10.1,8.2c5.1,8.8,6.2,11.8,2.6,13.9c-3.1,1.8-5.9-0.9-10.4-8.7
		C280.8,196.4,278.6,191,282.3,188.9z"/>
	<path class="st0" d="M195.4,205.2l6.8-3.9l4.2,4.8l6.9-4l-23.5-24.4l-8.4,4.8l9.2,32.6l6.9-4L195.4,205.2z M188.4,185.5
		L188.4,185.5l9.8,11.2l-4.9,2.8L188.4,185.5z"/>
	<polygon class="st0" points="228.7,186 219,191.6 205.7,168.5 199,172.4 215.5,200.9 231.8,191.4 	"/>
	<polygon class="st0" points="247.2,175.3 237.5,180.9 224.2,157.9 217.5,161.8 233.9,190.2 250.3,180.8 	"/>
	<path class="st0" d="M202.5,338.9l-10.4,6l16.4,28.4l6.7-3.9l-6.4-11.1l2.9-1.7c6.7-3.9,7.1-8.9,4.1-14
		C213.9,339.1,209.6,334.8,202.5,338.9z M207.9,352.3l-1.8,1.1l-4.3-7.4l1.7-1c2.7-1.6,4.4-0.3,5.7,1.9
		C210.2,348.8,210.5,350.8,207.9,352.3z"/>
	<path class="st0" d="M245.4,342.8c-2.3-3.8-4-6.3-8.7-4.4l0-0.1c2.7-2.6,3.2-5.5,0.8-9.7c-2.3-3.9-6.2-6.3-11.9-3l-11.2,6.5
		l16.4,28.4l6.7-3.9l-6.8-11.8l2.5-1.5c2.1-1.2,3.4-0.6,6.2,4.4c1.9,3.2,3,4.7,4.1,5.4l7.2-4.2l-0.2-0.4
		C249.4,348.8,248.8,348.4,245.4,342.8z M230,339l-2.1,1.2l-4.2-7.3l2-1.2c2.7-1.5,4.3-0.5,5.5,1.6C232.3,335.1,232.7,337.5,230,339
		z"/>
	<path class="st0" d="M246.2,312.9c-8.8,5.1-6.7,11.5-1.5,20.6c5.2,9,9.7,14.1,18.5,9c9.4-5.5,6-12.7,1.5-20.6
		C260.2,314,255.7,307.5,246.2,312.9z M260.7,338c-2.7,1.5-4.5-0.8-9-8.6c-4.5-7.8-5.6-10.5-2.9-12.1c2.7-1.6,4.6,0.7,9.1,8.5
		C262.3,333.7,263.4,336.5,260.7,338z"/>
	<path class="st0" d="M270,300l-9.9,5.7l16.4,28.4l9.2-5.3c8.8-5.1,7.3-10.7,1.4-21C281.4,297.9,276.6,296.1,270,300z M282.1,324.3
		l-1.8,1l-10.7-18.6l1.9-1.1c3.5-2,5.2-0.5,9.2,6.4C285.6,320.6,285.2,322.5,282.1,324.3z"/>
	<path class="st0" d="M306.7,306.7c1.3,2.2,1.2,4.1-0.6,5.1s-3.4,0.2-4.7-2l-12.1-21l-6.7,3.9l11,19c3.2,5.6,7.3,9,15.1,4.6
		c7.8-4.5,6.8-9.8,3.6-15.4l-11-19l-6.7,3.9L306.7,306.7z"/>
	<path class="st0" d="M328.6,298.8c-2.8,1.6-4.3-0.4-9.2-8.9c-4.3-7.4-5.5-10.1-2.9-11.7c2.2-1.3,3.8,0.3,6.2,4.4l6.5-3.7l-0.7-1.2
		c-3.9-6.7-8.6-7.4-14.5-4c-9.4,5.5-5.7,13-1.5,20.3c4.9,8.6,9.3,14.6,17.9,9.6c8.3-4.8,7.4-10.4,3.8-16.5l-0.6-1l-6.5,3.7
		C329.8,294.4,331,297.4,328.6,298.8z"/>
	<polygon class="st0" points="327.8,273.8 333.7,270.4 347,293.4 353.7,289.5 340.4,266.5 346.4,263.1 343.3,257.6 324.6,268.4 	"/>
	<path class="st0" d="M355.6,259.9c-1.2-2.1-0.8-3.6,0.9-4.6c1-0.6,1.8-0.6,2.6-0.2c0.7,0.4,1.5,1.3,2.3,2.7l6.5-3.7l-0.4-0.7
		c-2.5-4.3-6.9-6.4-13.6-2.5c-6.9,4-7.1,9.2-4.5,13.8c6.1,10.6,16.4,0.1,19.9,6.3c0.9,1.6,1.3,3.8-1.1,5.1c-2.4,1.4-3.9,0-5.1-2.1
		l-0.6-1l-6.5,3.7l1.1,1.8c3.4,5.9,8.7,4.8,13.6,2c6.1-3.5,8.2-8.2,4.5-14.7C369.5,255.7,359,265.8,355.6,259.9z"/>
</g>
</svg>
